<?xml version="1.0" encoding="UTF-8" standalone="no"?>
<!-- Created with Inkscape (http://www.inkscape.org/) -->

<svg
   width="256.70099"
   height="256.51999"
   viewBox="0 0 67.918802 67.870913"
   version="1.1"
   id="svg5"
   xmlns="http://www.w3.org/2000/svg"
   xmlns:svg="http://www.w3.org/2000/svg">
  <defs
     id="defs2" />
  <g
     id="layer1">
    <path
       id="rect286"
       style="fill:#ffffff;stroke-width:2;stroke-linecap:round"
       d="m 10.252988,8.8922415 h 47.412827 c 2.394065,0 4.321417,1.9273515 4.321417,4.3214165 0,2.394065 -1.927352,4.321416 -4.321417,4.321416 H 10.252988 c -2.3940648,0 -4.3214165,-1.927351 -4.3214165,-4.321416 0,-2.394065 1.9273517,-4.3214165 4.3214165,-4.3214165 z" />
    <path
       id="rect335"
       style="fill:#ffffff;stroke-width:2;stroke-linecap:round"
       d="m 10.252988,28.997223 h 47.412827 c 2.394065,0 4.321417,1.927352 4.321417,4.321416 0,2.394065 -1.927352,4.321417 -4.321417,4.321417 H 10.252988 c -2.3940648,0 -4.3214165,-1.927352 -4.3214165,-4.321417 0,-2.394064 1.9273517,-4.321416 4.3214165,-4.321416 z" />
    <path
       id="rect445"
       style="fill:#ffffff;stroke-width:2;stroke-linecap:round"
       d="m 10.252988,49.102203 h 47.412827 c 2.394065,0 4.321417,1.927352 4.321417,4.321417 0,2.394064 -1.927352,4.321416 -4.321417,4.321416 H 10.252988 c -2.3940648,0 -4.3214165,-1.927352 -4.3214165,-4.321416 0,-2.394065 1.9273517,-4.321417 4.3214165,-4.321417 z" />
  </g>
</svg>
