<?xml version="1.0" encoding="iso-8859-1"?>
<!-- Generator: Adobe Illustrator 19.0.0, SVG Export Plug-In . SVG Version: 6.00 Build 0)  -->
<svg version="1.1" id="Layer_1" xmlns="http://www.w3.org/2000/svg" xmlns:xlink="http://www.w3.org/1999/xlink" x="0px" y="0px"
	 viewBox="0 0 512.002 512.002" style="enable-background:new 0 0 512.002 512.002;" xml:space="preserve">
<g>
	<g>
		<path d="M444.412,82.672H118.635l46.575-46.575c8.258-8.258,8.258-21.645,0-29.903c-8.256-8.258-21.646-8.258-29.903,0
			L52.735,88.768c-0.07,0.069-0.14,0.138-0.209,0.209l-37.475,37.473c-8.258,8.258-8.258,21.645,0,29.903l120.255,120.256
			c4.129,4.129,9.541,6.194,14.951,6.194c5.41,0,10.823-2.064,14.951-6.194c8.258-8.258,8.258-21.645,0-29.903l-46.575-46.575
			h325.779c32.384,0,58.73-26.345,58.73-58.73S476.796,82.672,444.412,82.672z M444.415,157.841H76.346l-16.44-16.44l16.438-16.438
			h368.07c9.066,0,16.44,7.374,16.44,16.438C460.854,150.466,453.48,157.841,444.415,157.841z"/>
	</g>
</g>
<g>
	<g>
		<path d="M496.95,355.649L376.694,235.393c-8.256-8.258-21.645-8.258-29.903,0c-8.258,8.258-8.258,21.645,0,29.903l46.575,46.575
			H67.586c-32.383,0-58.728,26.345-58.728,58.73c0,32.384,26.345,58.728,58.728,58.728h325.78l-46.575,46.576
			c-8.258,8.258-8.258,21.645,0,29.903c4.129,4.129,9.541,6.194,14.951,6.194s10.823-2.064,14.951-6.194l82.573-82.573
			c0.07-0.069,0.14-0.138,0.209-0.209l37.473-37.475C505.209,377.294,505.209,363.907,496.95,355.649z M435.658,387.038H67.586
			c-9.064,0-16.438-7.374-16.438-16.438s7.374-16.44,16.438-16.44h368.07l16.44,16.44L435.658,387.038z"/>
	</g>
</g>
<g>
</g>
<g>
</g>
<g>
</g>
<g>
</g>
<g>
</g>
<g>
</g>
<g>
</g>
<g>
</g>
<g>
</g>
<g>
</g>
<g>
</g>
<g>
</g>
<g>
</g>
<g>
</g>
<g>
</g>
</svg>
